<svg xmlns="http://www.w3.org/2000/svg" id="Layer_1" viewBox="0.11 7.79 24.78 9.43"><path d="M.11,12.07V7.79H.72v1.84h1.83v-1.84h.61v4.28h-.61v-1.83H.72v1.83H.11Z"/><path d="M3.86,12.07v-3.36l.92-.92h1.22l.92,.92v3.36h-.61v-1.53h-1.83v1.53h-.61Zm2.45-2.14v-.92l-.61-.61h-.61l-.61,.61v.92h1.83Z"/><path d="M8.22,12.07l-.61-.61v-3.06l.61-.61h1.83l.61,.61v.61h-.61v-.31l-.31-.31h-1.22l-.31,.31v2.45l.31,.31h1.22l.31-.31v-.31h.61v.61l-.61,.61h-1.83Z"/><path d="M14.49,17.21v-.61h2.45v-1.22h-1.83v-.61h1.83v-1.22h-2.45v-.61h3.06v4.28h-3.06Z"/><path d="M18.24,12.07V7.79h2.45l.61,.61v1.22l-.61,.61h-.15l.76,1.53v.31h-.61l-.92-1.83h-.92v1.83h-.61Zm2.14-2.45l.31-.31v-.61l-.31-.31h-1.53v1.22h1.53Z"/><path d="M21.99,12.07l2.14-4.28h.76l-2.14,4.28h-.76Z"/><path d="M3.86,17.21v-3.36l.92-.92h1.22l.92,.92v3.36h-.61v-1.53h-1.83v1.53h-.61Zm2.45-2.14v-.92l-.61-.61h-.61l-.61,.61v.92h1.83Z"/><path d="M7.6,17.21v-4.28h2.45l.61,.61v1.22l-.31,.31,.31,.31v1.22l-.61,.61h-2.45Zm2.14-2.45l.31-.31v-.61l-.31-.31h-1.53v1.22h1.53Zm0,1.83l.31-.31v-.61l-.31-.31h-1.53v1.22h1.53Z"/><path d="M18.85,17.21l-.61-.61v-.61h.61v.31l.31,.31h1.22l.31-.31v-.61l-.31-.31h-1.53l-.61-.61v-1.22l.61-.61h1.83l.61,.61v.61h-.61v-.31l-.31-.31h-1.22l-.31,.31v.61l.31,.31h1.53l.61,.61v1.22l-.61,.61h-1.83Z"/><polygon points="11.96 12.93 11.35 12.93 11.35 17.21 13.79 17.21 13.79 16.6 11.96 16.6 11.96 12.93"/><polygon points="13.19 7.79 13.19 9.65 12.86 9.31 11.66 8.11 11.35 8.11 11.35 8.72 12.57 9.93 11.35 11.15 11.35 11.75 11.66 11.75 12.86 10.55 13.19 10.21 13.19 12.07 13.8 12.07 13.8 7.79 13.19 7.79"/><g><rect x="1.33" y="13.67" width=".61" height="3.54"/><polygon points=".11 12.93 .11 13.54 1.12 13.54 1.33 13.54 1.94 13.54 2.13 13.54 3.16 13.54 3.16 12.93 .11 12.93"/></g><g><polygon points="17.55 7.79 14.49 7.79 14.49 12.07 17.55 12.07 17.55 11.46 15.1 11.46 15.1 8.4 17.55 8.4 17.55 7.79"/><rect x="15.87" y="9.55" width=".61" height=".61"/></g></svg>