<svg xmlns="http://www.w3.org/2000/svg" viewBox="3.08 12.7 73.99 665.67">
  <path style="fill: none; stroke: rgb(255, 255, 255); stroke-width: 3px; stroke-dasharray: 8px;" d="M 74.195 14.729 C 74.195 14.729 4.573 9.684 10.627 30.873 C 16.681 52.062 14.663 100.496 39.889 86.874 C 65.115 73.252 82.772 86.874 72.682 102.009 C 62.592 117.144 38.375 97.469 29.294 129.757 C 20.213 162.045 11.132 192.821 11.132 193.326 C 11.132 193.831 9.114 272.534 32.826 242.263 C 56.538 211.992 25.258 222.587 27.78 204.929 C 30.302 187.271 45.438 159.524 48.465 181.722 C 51.492 203.92 53.006 235.2 63.601 242.768 C 74.196 250.336 70.159 292.714 60.574 286.156 C 50.989 279.598 52.501 242.263 35.348 260.426 C 18.195 278.589 24.753 336.102 28.285 353.255 C 31.817 370.408 75.709 378.481 68.141 403.706 C 60.573 428.931 51.492 381.004 30.808 410.265 C 10.124 439.526 5.078 440.031 6.087 446.59 C 7.096 453.149 -3.499 481.906 20.213 486.446 C 43.925 490.986 32.826 490.987 64.105 491.491 C 95.384 491.995 33.33 562.851 33.33 562.851 C 33.33 562.851 10.123 586.563 25.258 616.834 C 40.393 647.105 57.042 645.086 57.042 676.871"/>
</svg>